Release Group: decibeL
Container: mkv
Format: x264
Resolution: 720p
Source Media: HDTV
Audio Format: AC-3
Audio Channels: 6
Audio Bitrate: 384
Subtitles English

Complete Name : High.Noon.1952.HDTV.720p.DD5.1.x264.dxva-decibeL.mkv
Format : Matroska
File Size : 4.37 GiB
Duration : 1h 24mn
Overall bit rate : 7 391 Kbps
Movie name : High Noon (1952)
Encoded date : UTC 2011-02-01 05:25:38
Writing application : mkvmerge v4.4.0 ('Die Wiederkehr') built on Oct 31 2010 21:52:48
Writing library : libebml v1.0.0 + libmatroska v1.0.0

Video
ID : 1
Format : AVC
Format/Info : Advanced Video Codec
Format profile : High@L4.1
Format settings, CABAC : Yes
Format settings, ReFrames : 9 frames
Format settings, GOP : M=3, N=6
Codec ID : V_MPEG4/ISO/AVC
Duration : 1h 24mn
Bit rate : 7 005 Kbps
Width: 968 pixels
Height: 720 pixels
Display aspect ratio : 4:3
Frame Rate: 23.976 fps
Color space : YUV
Chroma subsampling : 4:2:0
Bit depth : 8 bits
Scan Type : Progressive
Bits/(Pixel*Frame) : 0.419
Stream size : 4.06 GiB (93%)
Writing library : x264 core 112 r1867 22bfd31
Encoding settings : cabac=1 / ref=9 / deblock=1:-3:-3 / analyse=0x3:0x113 / me=umh / subme=10 / psy=1 / psy_rd=1.00:0.00 / mixed_ref=1 / me_range=64 / chroma_me=1 / trellis=2 / 8x8dct=1 / cqm=0 / deadzone=21,11 / fast_pskip=1 / chroma_qp_offset=-2 / threads=6 / sliced_threads=0 / nr=0 / decimate=1 / interlaced=0 / constrained_intra=0 / bframes=8 /b_pyramid=2 / b_adapt=2 / b_bias=0 / direct=2 / weightb=1 / open_gop=0 / weightp=2 / keyint=250 / keyint_min=23 / scenecut=40 / intra_refresh=0 / rc_lookahead=50 / rc=2pass / mbtree=1 / bitrate=7005 / ratetol=1.0 / qcomp=0.80 / qpmin=10 / qpmax=51 / qpstep=4 / cplxblur=20.0 / qblur=0.5 / vbv_maxrate=38000 / vbv_bufsize=30000 / nal_hrd=none / ip_ratio=1.40 / aq=1:1.00
Language : English

Audio
ID : 2
Format : AC-3
Format/Info : Audio Coding 3
Mode extension : CM (complete main)
Codec ID : A_AC3
Duration : 1h 24mn
Bit rate mode : Constant
Bit Rate : 384 Kbps
Channel(s): 6 channels
Channel positions : Front: L C R, Side: L R, LFE
Sampling rate : 48.0 KHz
Bit depth : 16 bits
Compression mode : Lossy
Stream size : 233 MiB (5%)
Language : English

Text
ID : 3
Format : UTF-8
Codec ID : S_TEXT/UTF8
Codec ID/Info : UTF-8 Plain Tex
Language : English
 
http://www.imagebam.com/image/e37eb9117998900
 
http://www.imagebam.com/image/d03888117998907
 
http://www.imagebam.com/image/9d1e2f117998913
 
http://www.imagebam.com/image/80ae6c117998922